2.8Hzhigh3min_grf.mot
version=1
nRows=27
nColumns 19
inDegrees=yes
endheader
time	1_ground_force_vx	1_ground_force_vy	1_ground_force_vz	1_ground_force_px	1_ground_force_py	1_ground_force_pz	1_ground_torque_x	1_ground_torque_y	1_ground_torque_z	2_ground_force_vx	2_ground_force_vy	2_ground_force_vz	2_ground_force_px	2_ground_force_py	2_ground_force_pz	2_ground_torque_x	2_ground_torque_y	2_ground_torque_z
            3.751500	            0.412893	            1.441222	            0.234439	           -0.233013	            0.005581	           -0.255695	            0.252231	           -0.193945	            0.034882	           -0.191572	            1.105720	           -0.418331	           -0.232311	            0.006130	           -0.833667	           -0.225524	            0.009177	           -0.150672
            3.752000	            0.459437	            0.719185	            0.460513	           -0.233013	            0.005581	           -0.255695	            0.242772	           -0.128972	           -0.019230	            0.001247	           -0.367627	           -0.189027	           -0.232311	            0.006130	           -0.833667	           -0.263180	            0.028081	           -0.188289
            3.752500	            0.229146	            1.622042	            0.098100	           -0.233013	            0.005581	           -0.255695	            0.182698	            0.000305	           -0.028333	            0.278132	            0.740119	           -0.701413	           -0.232311	            0.006130	           -0.833667	           -0.244189	           -0.037751	           -0.263934
            3.753000	            0.412812	            1.261153	            0.187810	           -0.233013	            0.005581	           -0.255695	            0.273154	            0.138578	            0.092656	            0.325085	            0.739451	           -0.466792	           -0.232311	            0.006130	           -0.833667	           -0.206424	           -0.075897	           -0.132133
            3.753500	            0.321240	            1.260939	            0.233894	           -0.233013	            0.005581	           -0.255695	            0.158323	            0.138918	           -0.004957	            0.141050	           -0.182302	           -0.376142	           -0.232311	            0.006130	           -0.833667	           -0.319185	           -0.075901	           -0.245187
            3.754000	            0.229389	            2.162249	            0.237986	           -0.233013	            0.005581	           -0.255695	            0.157916	           -0.092451	            0.046504	            0.373244	            0.371491	           -0.515054	           -0.232311	            0.006130	           -0.833667	           -0.281590	           -0.075967	           -0.188652
            3.754500	            0.321060	            1.621667	            0.189584	           -0.233013	            0.005581	           -0.255695	            0.272778	           -0.147687	            0.012315	            0.137727	            0.738440	           -0.372856	           -0.232311	            0.006130	           -0.833667	           -0.263206	            0.037466	           -0.169405
            3.755000	           -0.045573	            2.882866	            0.333473	           -0.233013	            0.005581	           -0.255695	            0.172214	           -0.212574	           -0.003396	            0.046747	            0.001006	           -0.234660	           -0.232311	            0.006130	           -0.833667	           -0.225404	           -0.028500	           -0.188507
            3.755500	            0.091941	            2.342292	            0.284956	           -0.233013	            0.005581	           -0.255695	            0.268323	           -0.092249	           -0.016034	           -0.140838	            0.001836	           -0.656934	           -0.232311	            0.006130	           -0.833667	           -0.281914	            0.009242	           -0.226049
            3.756000	            0.413138	            0.719963	            0.277203	           -0.233013	            0.005581	           -0.255695	            0.307050	            0.092532	            0.054798	           -0.000953	            0.186492	           -0.656336	           -0.232311	            0.006130	           -0.833667	           -0.225345	           -0.047338	           -0.207425
            3.756500	            0.137964	            1.981573	            0.329153	           -0.233013	            0.005581	           -0.255695	            0.228970	            0.148175	           -0.031736	            0.045315	            0.370140	           -0.467987	           -0.232311	            0.006130	           -0.833667	           -0.244164	           -0.037953	           -0.207383
            3.757000	            0.275151	            1.982189	            0.191244	           -0.233013	            0.005581	           -0.255695	            0.084592	            0.083663	           -0.063386	            0.233359	            0.186835	           -0.515652	           -0.232311	            0.006130	           -0.833667	           -0.244012	           -0.066714	           -0.094383
            3.757500	            0.275544	            1.080468	            0.279091	           -0.233013	            0.005581	           -0.255695	            0.231508	           -0.045794	           -0.045476	            0.373847	            0.187845	           -0.656496	           -0.232311	            0.006130	           -0.833667	           -0.187757	           -0.047337	           -0.169741
            3.758000	            0.321336	            1.981608	            0.328698	           -0.233013	            0.005581	           -0.255695	            0.228768	           -0.174776	           -0.138090	            0.094118	           -0.181802	           -0.563834	           -0.232311	            0.006130	           -0.833667	           -0.187901	           -0.018642	           -0.263890
            3.758500	            0.184930	            1.439015	            0.739423	           -0.233013	            0.005581	           -0.255695	            0.192913	           -0.147424	           -0.068536	            0.001768	           -0.550604	           -0.518180	           -0.232311	            0.006130	           -0.833667	           -0.187764	           -0.056453	           -0.264025
            3.759000	            0.275721	            1.981206	            0.420523	           -0.233013	            0.005581	           -0.255695	            0.225293	           -0.027706	            0.048576	            0.045212	            0.370976	           -0.702627	           -0.232311	            0.006130	           -0.833667	           -0.356995	           -0.009867	           -0.244935
            3.759500	            0.367343	            1.080289	            0.324719	           -0.233013	            0.005581	           -0.255695	            0.285808	            0.083748	           -0.059944	            0.231385	            0.739113	           -0.466752	           -0.232311	            0.006130	           -0.833667	           -0.244240	           -0.018980	           -0.226166
            3.760000	            0.367553	            1.800762	            0.465379	           -0.233013	            0.005581	           -0.255695	            0.223017	            0.111713	           -0.116088	            0.280832	            0.003191	           -0.610185	           -0.232311	            0.006130	           -0.833667	           -0.168870	           -0.075627	           -0.169850
            3.760500	            0.138209	            1.260313	            0.371917	           -0.233013	            0.005581	           -0.255695	            0.246455	            0.046180	            0.043002	           -0.001535	            0.369970	           -0.467967	           -0.232311	            0.006130	           -0.833667	           -0.300511	           -0.047408	           -0.263944
            3.761000	            0.366936	            1.441410	            0.188697	           -0.233013	            0.005581	           -0.255695	            0.197429	           -0.100819	           -0.135721	            0.092124	            0.370643	           -0.561863	           -0.232311	            0.006130	           -0.833667	           -0.243952	           -0.085553	           -0.113301
            3.761500	            0.138341	            0.539251	            0.368825	           -0.233013	            0.005581	           -0.255695	            0.227865	           -0.202831	           -0.089581	            0.140262	            0.002851	           -0.657053	           -0.232311	            0.006130	           -0.833667	           -0.319375	           -0.010135	           -0.131849
            3.762000	            0.550030	            2.342970	            0.146251	           -0.233013	            0.005581	           -0.255695	            0.217881	           -0.128946	           -0.015317	            0.376567	           -0.549251	           -0.518340	           -0.232311	            0.006130	           -0.833667	           -0.225515	           -0.000074	           -0.207256
            3.762500	            0.642287	            1.080538	            0.278180	           -0.233013	            0.005581	           -0.255695	            0.175225	           -0.017906	           -0.029578	            0.044609	            0.554623	           -0.561186	           -0.232311	            0.006130	           -0.833667	           -0.357097	            0.018491	           -0.244833
            3.763000	            0.321435	            1.440811	            0.326379	           -0.233013	            0.005581	           -0.255695	            0.191856	            0.055737	           -0.005404	           -0.001514	            0.369803	           -0.421039	           -0.232311	            0.006130	           -0.833667	           -0.319390	           -0.019184	           -0.244984
            3.763500	            0.458835	            0.900434	            0.232007	           -0.233013	            0.005581	           -0.255695	            0.271154	            0.148327	           -0.018118	            0.094179	           -0.182304	           -0.423050	           -0.232311	            0.006130	           -0.833667	           -0.319211	           -0.066515	           -0.226303
            3.764000	            0.229341	            1.801915	            0.190584	           -0.233013	            0.005581	           -0.255695	            0.197586	           -0.009174	            0.027978	            0.184577	            0.738609	           -0.372876	           -0.232311	            0.006130	           -0.833667	           -0.206473	           -0.075494	           -0.245235
            3.764500	            0.413070	            2.341961	            0.375872	           -0.233013	            0.005581	           -0.255695	            0.208085	           -0.101273	           -0.021038	            0.183268	            1.106738	           -0.324634	           -0.232311	            0.006130	           -0.833667	           -0.206566	           -0.056387	           -0.301718
